<?xml version="1.0" encoding="UTF-8"?>
<svg version="1.1" xmlns="http://www.w3.org/2000/svg" width="148" height="148">
<path d="M0 0 C48.84 0 97.68 0 148 0 C148 48.84 148 97.68 148 148 C99.16 148 50.32 148 0 148 C0 99.16 0 50.32 0 0 Z " fill="#0966FF" transform="translate(0,0)"/>
<path d="M0 0 C0 6.93 0 13.86 0 21 C-8.1875 21.3125 -8.1875 21.3125 -10.73901367 21.38793945 C-15.23247944 21.60745858 -18.41376872 22.03004978 -22 25 C-25.20441903 28.98253402 -25.52071129 32.87091222 -25.6875 37.8125 C-25.790625 40.184375 -25.89375 42.55625 -26 45 C-18.08 45 -10.16 45 -2 45 C-3.149523 52.71822587 -4.40400911 60.36204362 -6 68 C-12.6 68 -19.2 68 -26 68 C-26 84.5 -26 101 -26 118 C-1.98478202 111.6802058 15.58376132 103.71829892 28.09765625 82.3984375 C29.03931641 80.71621094 29.03931641 80.71621094 30 79 C30.51433594 78.08476563 31.02867187 77.16953125 31.55859375 76.2265625 C35.44473697 68.54652872 36.69986728 60.42443723 38 52 C38.33 52 38.66 52 39 52 C39 74.11 39 96.22 39 119 C-9.84 119 -58.68 119 -109 119 C-109 96.89 -109 74.78 -109 52 C-108.67 52 -108.34 52 -108 52 C-107.87625 52.969375 -107.7525 53.93875 -107.625 54.9375 C-104.79246094 74.27816437 -94.78097862 92.15885418 -79 104 C-70.96048858 109.27268158 -62.48110893 114.10377821 -53 116 C-53 100.16 -53 84.32 -53 68 C-57.95 68 -62.9 68 -68 68 C-68 60.41 -68 52.82 -68 45 C-63.05 45 -58.1 45 -53 45 C-53.05220703 43.00839844 -53.05220703 43.00839844 -53.10546875 40.9765625 C-53.34385954 28.11562249 -53.50374523 17.26683796 -44.38671875 7.22265625 C-32.67426404 -4.24730457 -14.89831766 -4.25666219 0 0 Z " fill="#FBFCFF" transform="translate(109,29)"/>
<path d="M0 0 C23.1 0 46.2 0 70 0 C70 21.45 70 42.9 70 65 C69.67 65 69.34 65 69 65 C68.814375 63.7625 68.814375 63.7625 68.625 62.5 C65.43764453 44.65080936 55.81065394 26.40289436 40.83203125 15.74609375 C27.76902494 6.96006619 15.72448661 2.09840164 0 1 C0 0.67 0 0.34 0 0 Z " fill="#FBFCFF" transform="translate(78,0)"/>
<path d="M0 0 C21.45 0 42.9 0 65 0 C65 0.33 65 0.66 65 1 C64.11699219 1.15855469 63.23398437 1.31710938 62.32421875 1.48046875 C42.94107348 5.24883534 25.91531313 15.05901356 14.25 31.25 C7.08275425 41.91524775 3.15145001 52.41213021 1 65 C0.67 65 0.34 65 0 65 C0 43.55 0 22.1 0 0 Z " fill="#FCFDFF" transform="translate(0,0)"/>
</svg>
