<?xml version="1.0" encoding="UTF-8"?>
<svg version="1.1" xmlns="http://www.w3.org/2000/svg" width="204" height="192">
<path d="M0 0 C67.32 0 134.64 0 204 0 C204 63.36 204 126.72 204 192 C136.68 192 69.36 192 0 192 C0 128.64 0 65.28 0 0 Z " fill="#017DBA" transform="translate(0,0)"/>
<path d="M0 0 C8.50485438 4.57953697 13.23862531 11.29018461 16.2734375 20.2890625 C17.68783747 25.56644732 18.12351913 30.55855663 18.11352539 36.01513672 C18.11367142 36.68900925 18.11381744 37.36288177 18.1139679 38.05717468 C18.11327621 40.26471273 18.10551897 42.47216436 18.09765625 44.6796875 C18.09578942 46.21810866 18.09436677 47.75653042 18.09336853 49.29495239 C18.08956419 53.32924055 18.07975184 57.36349227 18.06866455 61.39776611 C18.05659937 66.24617765 18.05203826 71.09460141 18.04621124 75.94302368 C18.03653885 83.2953744 18.01736777 90.6476453 18 98 C7.77 98 -2.46 98 -13 98 C-13.03738281 93.84535156 -13.07476562 89.69070312 -13.11328125 85.41015625 C-13.15144574 82.07638731 -13.19251801 78.7426821 -13.2355423 75.40897369 C-13.280018 71.90149662 -13.31948994 68.39413388 -13.34643555 64.88647461 C-13.37766317 60.85241123 -13.43244401 56.81895464 -13.48828125 52.78515625 C-13.49467117 51.54105484 -13.5010611 50.29695343 -13.50764465 49.01515198 C-13.65221689 37.21248199 -13.65221689 37.21248199 -19.5625 27.5 C-24.65119739 24.36849391 -29.09489768 24.42170722 -35 25 C-39.12114683 26.29479479 -41.52485586 28.25560752 -43.875 31.9375 C-45.60163965 36.63779683 -46.12915666 40.89755825 -46.20532227 45.8918457 C-46.22526749 47.05267166 -46.24521271 48.21349762 -46.26576233 49.40950012 C-46.28247482 50.65237289 -46.29918732 51.89524567 -46.31640625 53.17578125 C-46.33718735 54.45607712 -46.35796844 55.73637299 -46.37937927 57.0554657 C-46.43437572 60.44689729 -46.48388312 63.83838735 -46.53222656 67.22991943 C-46.58260616 70.6956497 -46.63815584 74.16129689 -46.69335938 77.62695312 C-46.80115225 84.41790442 -46.90034921 91.2089048 -47 98 C-56.9 98 -66.8 98 -77 98 C-77 65.33 -77 32.66 -77 -1 C-67.1 -1 -57.2 -1 -47 -1 C-46.67 2.3 -46.34 5.6 -46 9 C-44.6078125 7.4221875 -44.6078125 7.4221875 -43.1875 5.8125 C-31.68092351 -5.78819981 -14.20559055 -6.86444644 0 0 Z " fill="#FAFCFD" transform="translate(158,72)"/>
<path d="M0 0 C10.23 0 20.46 0 31 0 C31 32.67 31 65.34 31 99 C20.77 99 10.54 99 0 99 C0 66.33 0 33.66 0 0 Z " fill="#FAFCFD" transform="translate(31,71)"/>
<path d="M0 0 C4.40329093 2.47035023 8.10872476 4.98462804 9.625 10 C9.686875 11.093125 9.74875 12.18625 9.8125 13.3125 C9.89757812 14.07949219 9.98265625 14.84648438 10.0703125 15.63671875 C10.49388132 21.64955446 9.39124374 24.94501097 5.61328125 29.62109375 C1.59087558 33.39918845 -1.60627346 34.73011565 -7.125 34.6875 C-11.90358326 34.53542758 -15.28477419 34.28600538 -19.1875 31.3125 C-23.61857395 26.37860915 -25.94493432 22.58713675 -26.4375 15.9375 C-26.02844309 10.00617474 -23.29471274 5.53380198 -19.1875 1.3125 C-12.67668155 -2.31853337 -6.74419208 -3.11855498 0 0 Z " fill="#FAFCFD" transform="translate(54.1875,23.6875)"/>
<path d="M0 0 C0.33 0 0.66 0 1 0 C1 4.29 1 8.58 1 13 C-1.31 13 -3.62 13 -6 13 C-5.65066406 12.39671875 -5.30132812 11.7934375 -4.94140625 11.171875 C-4.25884766 9.97304687 -4.25884766 9.97304687 -3.5625 8.75 C-3.11003906 7.96109375 -2.65757812 7.1721875 -2.19140625 6.359375 C-1.10688398 4.21166532 -0.46851284 2.34794939 0 0 Z " fill="#E7EFF6" transform="translate(203,179)"/>
<path d="M0 0 C0.66 1.32 1.32 2.64 2 4 C2.86735992 5.58753149 3.74251924 7.1708239 4.625 8.75 C5.07101563 9.54921875 5.51703125 10.3484375 5.9765625 11.171875 C6.31429688 11.77515625 6.65203125 12.3784375 7 13 C4.69 13 2.38 13 0 13 C0 8.71 0 4.42 0 0 Z " fill="#E7EFF6" transform="translate(0,179)"/>
<path d="M0 0 C2.31 0 4.62 0 7 0 C7 3.63 7 7.26 7 11 C4.28787277 7.38383036 2.18994418 3.92679647 0 0 Z " fill="#EAF2F7" transform="translate(197,0)"/>
<path d="M0 0 C2.31 0 4.62 0 7 0 C6.21258141 1.46063143 5.4199095 2.91843173 4.625 4.375 C4.18414063 5.18710938 3.74328125 5.99921875 3.2890625 6.8359375 C2 9 2 9 0 11 C0 7.37 0 3.74 0 0 Z " fill="#EDF3F8" transform="translate(0,0)"/>
<path d="M0 0 C0.66 0.33 1.32 0.66 2 1 C-0.64 3.64 -3.28 6.28 -6 9 C-6 6 -6 6 -3.5625 3.375 C-2.716875 2.59125 -1.87125 1.8075 -1 1 C-0.67 0.67 -0.34 0.34 0 0 Z " fill="#318BC1" transform="translate(120,97)"/>
</svg>
