<?xml version="1.0" encoding="UTF-8"?>
<svg version="1.1" xmlns="http://www.w3.org/2000/svg" width="152" height="148">
<path d="M0 0 C50.16 0 100.32 0 152 0 C152 48.84 152 97.68 152 148 C101.84 148 51.68 148 0 148 C0 99.16 0 50.32 0 0 Z " fill="#27D045" transform="translate(0,0)"/>
<path d="M0 0 C6.05630696 4.91474117 10.46775537 11.89255051 11.96875 19.59765625 C12.92705473 30.1704281 10.96612345 38.82354655 4.71875 47.47265625 C-0.31310037 53.49579192 -7.01709074 57.96785823 -14.99194336 58.80297852 C-17.15464096 58.90138591 -19.30393454 58.91972661 -21.46875 58.91015625 C-22.55639648 58.93432617 -22.55639648 58.93432617 -23.66601562 58.95898438 C-27.45476793 58.96238847 -30.32848992 58.64739607 -33.78125 57.03125 C-37.13988088 55.54973854 -38.18810092 55.31906242 -41.59375 56.34765625 C-42.72296875 56.66089844 -42.72296875 56.66089844 -43.875 56.98046875 C-44.94234375 57.28597656 -44.94234375 57.28597656 -46.03125 57.59765625 C-48.02833656 57.94802231 -50.02723989 58.289347 -52.03125 58.59765625 C-51.8146875 57.72753906 -51.8146875 57.72753906 -51.59375 56.83984375 C-49.43170538 48.85272465 -49.43170538 48.85272465 -51.40625 41.16015625 C-51.9425 40.31453125 -52.47875 39.46890625 -53.03125 38.59765625 C-56.27991237 30.21952698 -56.16586155 21.64904697 -52.90625 13.28515625 C-48.37472529 3.6035979 -41.99324976 -2.31503772 -31.92578125 -6.21875 C-20.43509497 -9.49852672 -9.56766435 -6.85570315 0 0 Z " fill="#27D045" transform="translate(98.03125,47.40234375)"/>
<path d="M0 0 C9.41164852 6.92997005 15.43734908 15.16136707 18.35546875 26.609375 C19.2392861 39.86663531 16.45960257 50.66550545 7.98046875 61.171875 C3.32490992 66.17261785 -2.22952723 68.80202848 -8.45703125 71.421875 C-9.24207031 71.79828125 -10.02710938 72.1746875 -10.8359375 72.5625 C-14.29781522 73.69754187 -17.60262556 73.76105548 -21.20703125 73.734375 C-21.91786865 73.73381104 -22.62870605 73.73324707 -23.36108398 73.73266602 C-28.2419162 73.64742833 -32.10560045 72.81677988 -36.59765625 71.03515625 C-42.20494603 69.18569302 -49.27095396 72.33825805 -54.78515625 73.80078125 C-57.45703125 74.421875 -57.45703125 74.421875 -60.45703125 74.421875 C-59.98373938 69.49963954 -59.08711284 65.15835121 -57.64453125 60.421875 C-56.53717185 56.22026733 -56.15720173 53.87096932 -58.20703125 49.984375 C-58.59375 49.40816406 -58.98046875 48.83195312 -59.37890625 48.23828125 C-63.407171 41.45153086 -62.34816165 29.78626668 -60.80859375 22.24609375 C-56.951915 10.59364984 -48.92246052 2.67583177 -38.20703125 -2.890625 C-26.56317944 -8.59226318 -10.69189544 -6.86729056 0 0 Z M-48.3125 12.59765625 C-49.86240097 14.81344061 -51.19520546 17.03148555 -52.45703125 19.421875 C-52.79605469 20.05867188 -53.13507812 20.69546875 -53.484375 21.3515625 C-57.01279446 29.18888129 -56.34318559 37.674288 -53.51953125 45.609375 C-52.38092975 48.76533605 -52.38092975 48.76533605 -50.45703125 51.421875 C-50.54296875 53.27734375 -50.54296875 53.27734375 -50.83203125 55.609375 C-50.93128906 56.41632813 -51.03054687 57.22328125 -51.1328125 58.0546875 C-51.51632364 60.85478091 -51.95773926 63.64010534 -52.45703125 66.421875 C-51.87695312 66.28910156 -51.296875 66.15632813 -50.69921875 66.01953125 C-49.07867431 65.65317054 -47.45614479 65.29551198 -45.83203125 64.9453125 C-43.98960648 64.53925178 -42.15796489 64.08411775 -40.33203125 63.609375 C-37.45703125 63.421875 -37.45703125 63.421875 -34.30078125 64.8828125 C-30.19919456 66.71761975 -26.5321875 66.92241263 -22.08203125 66.859375 C-21.33252197 66.85180176 -20.5830127 66.84422852 -19.81079102 66.83642578 C-13.94507333 66.66190014 -9.42739368 65.66782597 -4.45703125 62.421875 C-3.76351562 62.009375 -3.07 61.596875 -2.35546875 61.171875 C4.42190637 56.70439177 7.9059208 50.44008361 10.91796875 43.046875 C12.8287246 31.96449105 11.15031741 23.89022431 5.73046875 14.171875 C-0.37144146 6.50090217 -7.86365764 2.43246228 -17.45703125 0.421875 C-29.27427354 -0.77364368 -40.54437491 3.48850746 -48.3125 12.59765625 Z " fill="#F4FCF5" transform="translate(98.45703125,39.578125)"/>
<path d="M0 0 C0.33 0 0.66 0 1 0 C1 22.77 1 45.54 1 69 C-19.13 69 -39.26 69 -60 69 C-60 68.67 -60 68.34 -60 68 C-58.948125 67.773125 -57.89625 67.54625 -56.8125 67.3125 C-37.33669394 62.33191468 -20.95802314 51.36200883 -10.5625 33.89453125 C-4.47813668 22.6232482 -0.9929359 12.75138737 0 0 Z " fill="#FBFEFC" transform="translate(151,79)"/>
<path d="M0 0 C0.33 0 0.66 0 1 0 C1.0515625 0.87398438 1.103125 1.74796875 1.15625 2.6484375 C2.58339762 18.12001513 8.83719081 32.19681159 19 44 C19.72574219 44.84820312 20.45148437 45.69640625 21.19921875 46.5703125 C31.40353995 57.60109938 45.21192841 65.26341736 60 68 C60 68.33 60 68.66 60 69 C40.2 69 20.4 69 0 69 C0 46.23 0 23.46 0 0 Z " fill="#FCFEFC" transform="translate(0,79)"/>
<path d="M0 0 C20.13 0 40.26 0 61 0 C61 21.45 61 42.9 61 65 C60.67 65 60.34 65 60 65 C59.84144531 64.12859375 59.68289062 63.2571875 59.51953125 62.359375 C55.59021026 42.30029991 45.64433485 24.09830549 28.3515625 12.45703125 C19.65257237 6.91293702 10.40150843 2.1244874 0 1 C0 0.67 0 0.34 0 0 Z " fill="#FCFEFC" transform="translate(91,0)"/>
<path d="M0 0 C19.8 0 39.6 0 60 0 C60 0.33 60 0.66 60 1 C58.80117187 1.32871094 58.80117187 1.32871094 57.578125 1.6640625 C45.03680129 5.28514892 34.77157722 10.28659696 25 19 C24.28972656 19.62777344 23.57945313 20.25554688 22.84765625 20.90234375 C11.09878206 31.92959803 2.46522074 48.88257184 1 65 C0.67 65 0.34 65 0 65 C0 43.55 0 22.1 0 0 Z " fill="#FCFEFC" transform="translate(0,0)"/>
<path d="M0 0 C1.11375 0.1546875 1.11375 0.1546875 2.25 0.3125 C6.29861111 6.32407407 6.29861111 6.32407407 6.0625 11.125 C5.25 14.3125 5.25 14.3125 4.25 16.3125 C7.61042176 22.09242542 11.58437708 26.2986043 18.1875 28.125 C19.2084375 28.2178125 19.2084375 28.2178125 20.25 28.3125 C20.518125 27.673125 20.78625 27.03375 21.0625 26.375 C22.25 24.3125 22.25 24.3125 25.25 23.3125 C27.29296875 24.08984375 27.29296875 24.08984375 29.4375 25.25 C30.15292969 25.63027344 30.86835937 26.01054688 31.60546875 26.40234375 C32.14816406 26.70269531 32.69085938 27.00304687 33.25 27.3125 C33.74046322 32.70759537 33.74046322 32.70759537 31.375 35.625 C27.56698407 38.64901265 25.11351978 38.69849363 20.25 38.3125 C9.0963581 34.81449403 0.64863412 26.9813969 -5.6875 17.375 C-7.11720104 13.25409701 -7.46350191 9.62522266 -6.75 5.3125 C-4.81860209 1.80737045 -4.03191017 0.45817161 0 0 Z " fill="#F6FCF7" transform="translate(62.75,54.6875)"/>
<path d="M0 0 C0 3 0 3 -1.53125 4.82421875 C-2.1809375 5.43910156 -2.830625 6.05398437 -3.5 6.6875 C-4.1496875 7.31011719 -4.799375 7.93273438 -5.46875 8.57421875 C-5.9740625 9.04472656 -6.479375 9.51523437 -7 10 C-7.66 9.67 -8.32 9.34 -9 9 C-8.06725891 7.87105124 -7.12859878 6.74699124 -6.1875 5.625 C-5.66542969 4.99851562 -5.14335938 4.37203125 -4.60546875 3.7265625 C-3 2 -3 2 0 0 Z " fill="#2FD24C" transform="translate(57,46)"/>
</svg>
