<?xml version="1.0" encoding="UTF-8"?>
<svg version="1.1" xmlns="http://www.w3.org/2000/svg" width="151" height="148">
<path d="M0 0 C49.83 0 99.66 0 151 0 C151 48.84 151 97.68 151 148 C101.17 148 51.34 148 0 148 C0 99.16 0 50.32 0 0 Z " fill="#020202" transform="translate(0,0)"/>
<path d="M0 0 C2.08093656 -0.03429186 4.1553842 -0.12197114 6.23461914 -0.21044922 C15.83068446 -0.44241222 15.83068446 -0.44241222 19.66186523 2.05297852 C21.51150137 4.12198767 22.94399188 6.23890239 24.41625977 8.59033203 C25.69297836 10.28132363 26.97986945 11.96467205 28.27563477 13.64111328 C29.57581856 15.39256811 30.87266815 17.14650273 32.16625977 18.90283203 C33.47130883 20.67141614 34.77851271 22.43841276 36.08813477 24.20361328 C36.65628906 24.97487549 37.22444336 25.7461377 37.80981445 26.54077148 C39.24590773 28.37299079 40.72973733 29.99017535 42.41625977 31.59033203 C44.04433737 29.98928893 45.66861861 28.38438467 47.29125977 26.77783203 C48.19618164 25.88451172 49.10110352 24.99119141 50.03344727 24.07080078 C52.51457491 21.6339487 52.51457491 21.6339487 54.41625977 18.59033203 C55.07625977 18.59033203 55.73625977 18.59033203 56.41625977 18.59033203 C56.66762695 18.01025391 56.91899414 17.43017578 57.17797852 16.83251953 C59.02031064 13.49656169 61.68005302 11.23670107 64.42407227 8.62939453 C66.17760698 6.83460018 67.30880126 5.20844245 68.60375977 3.09033203 C72.72538142 -0.57333166 76.41191435 0.13064001 81.74829102 0.37939453 C82.6287207 0.44900391 83.50915039 0.51861328 84.41625977 0.59033203 C82.87498626 4.30301297 80.60782743 6.57148901 77.72875977 9.34033203 C74.00489031 12.98406082 70.51147658 16.70437435 67.12719727 20.66064453 C65.29826113 22.72341724 63.38045518 24.65623923 61.41625977 26.59033203 C54.19023305 33.26987967 54.19023305 33.26987967 49.41625977 41.59033203 C50.894934 44.09658548 50.894934 44.09658548 53.10375977 46.77783203 C53.94800439 47.86338504 54.79172819 48.94934324 55.63500977 50.03564453 C56.08875977 50.6134668 56.54250977 51.19128906 57.01000977 51.78662109 C59.92845907 55.52993767 62.75506404 59.34335775 65.59155273 63.14892578 C68.47293392 67.01153408 71.38314043 70.84791736 74.33032227 74.66064453 C75.63007926 76.366162 76.92956319 78.07188762 78.22875977 79.77783203 C78.85806396 80.57970947 79.48736816 81.38158691 80.13574219 82.20776367 C80.7091333 82.96694092 81.28252441 83.72611816 81.87329102 84.50830078 C82.38867432 85.17627686 82.90405762 85.84425293 83.43505859 86.5324707 C84.73386088 89.256433 84.30087038 90.76107487 83.41625977 93.59033203 C80.69537934 96.31121246 73.44882627 95.21624962 69.59057617 95.32495117 C68.15430737 95.37639624 66.71866317 95.45117635 65.28491211 95.55053711 C53.46022006 96.3548354 53.46022006 96.3548354 48.66992188 92.21948242 C46.33559259 89.11575821 44.36700557 85.9464029 42.41625977 82.59033203 C41.14808545 80.80999217 39.85889543 79.04435817 38.54516602 77.29736328 C36.73598649 74.81637116 34.92895807 72.33399314 33.12915039 69.84619141 C32.54456055 69.04632813 31.9599707 68.24646484 31.35766602 67.42236328 C30.83889893 66.70798096 30.32013184 65.99359863 29.78564453 65.25756836 C28.5013439 63.46315491 28.5013439 63.46315491 26.41625977 62.59033203 C26.0662793 63.43337891 26.0662793 63.43337891 25.70922852 64.29345703 C24.096889 67.15767345 22.09690356 69.06285224 19.72875977 71.34033203 C15.98979349 74.99871714 12.47590837 78.73259173 9.08032227 82.70751953 C6.8062169 85.28056833 4.36883605 87.66576769 1.89672852 90.04736328 C0.19790472 91.72740575 0.19790472 91.72740575 -1.58374023 94.59033203 C-4.62280273 94.88330078 -4.62280273 94.88330078 -8.20874023 94.77783203 C-9.39725586 94.75076172 -10.58577148 94.72369141 -11.81030273 94.69580078 C-12.72553711 94.66099609 -13.64077148 94.62619141 -14.58374023 94.59033203 C-13.16635534 91.33826112 -11.45847612 89.27672136 -8.89624023 86.84033203 C-6.14142087 84.16010164 -3.52449164 81.44451636 -1.02124023 78.52783203 C1.73505801 75.32152591 4.63923031 72.34440365 7.65454102 69.38330078 C10.17051737 66.82269513 12.49486786 64.10909178 14.83813477 61.39111328 C16.61275792 59.36611013 18.47402911 57.45487346 20.41625977 55.59033203 C18.98737746 51.42464869 16.96206333 48.46620888 14.22875977 45.02783203 C13.33151054 43.88701713 12.4357807 42.74500621 11.54125977 41.60205078 C11.04754883 40.97218262 10.55383789 40.34231445 10.04516602 39.69335938 C6.24875636 34.79193959 2.56628024 29.80307491 -1.14111328 24.83422852 C-1.74479736 24.02671143 -2.34848145 23.21919434 -2.97045898 22.38720703 C-3.56270264 21.59451416 -4.15494629 20.80182129 -4.76513672 19.98510742 C-7.18791271 16.794745 -9.68881859 13.66842981 -12.20581055 10.55200195 C-14.04940225 7.92739895 -14.66179277 5.79048589 -14.58374023 2.59033203 C-10.90445716 -1.08895104 -4.9822579 0.05715337 0 0 Z " fill="#F7F7F7" transform="translate(40.583740234375,26.40966796875)"/>
<path d="M0 0 C49.83 0 99.66 0 151 0 C151 48.84 151 97.68 151 148 C101.17 148 51.34 148 0 148 C0 99.16 0 50.32 0 0 Z M10 16 C6.06847285 22.55254526 5.85072376 28.54851319 5.85473633 35.9777832 C5.85137772 36.87274506 5.8480191 37.76770691 5.84455872 38.68978882 C5.8350731 41.64346715 5.83310674 44.59708864 5.83203125 47.55078125 C5.82881681 49.60955325 5.8254526 51.66832503 5.82194519 53.72709656 C5.81595976 58.04194671 5.81410467 62.35677685 5.81469727 66.67163086 C5.81479881 72.18944937 5.80115207 77.70713897 5.78392506 83.22492695 C5.77278348 87.47753992 5.77077873 91.73012196 5.77130699 95.98274803 C5.77012992 98.01642488 5.76572352 100.0501026 5.75797462 102.08376503 C5.74813203 104.93394512 5.75106972 107.78384826 5.75708008 110.6340332 C5.75146057 111.46703445 5.74584106 112.30003571 5.74005127 113.15827942 C5.7872903 122.01358417 7.35754318 129.37700841 13.86328125 135.85546875 C20.63056546 142.03650988 25.57290394 143.29974839 34.58862305 143.30639648 C35.54864731 143.31472 36.50867157 143.32304352 37.49778748 143.33161926 C40.6691393 143.35569787 43.84028522 143.36448985 47.01171875 143.37109375 C49.22264161 143.38006333 51.43356385 143.38918524 53.64448547 143.39845276 C58.28050205 143.41494066 62.91644644 143.42264224 67.55249023 143.42553711 C73.47615395 143.4309135 79.39913337 143.46856438 85.32260418 143.51428127 C89.89100076 143.54411398 94.459234 143.55126206 99.0277195 143.55226326 C101.21048928 143.55645498 103.39326003 143.56884688 105.57593346 143.58978081 C108.63925917 143.61681668 111.70101784 143.61183246 114.7644043 143.59936523 C115.65567017 143.61419952 116.54693604 143.62903381 117.46520996 143.64431763 C126.05152442 143.5454497 132.93217204 140.38530502 138.9375 134.25 C144.56071606 127.89452238 145.44761251 119.63897517 145.38818359 111.4921875 C145.39344055 110.58849426 145.39869751 109.68480103 145.40411377 108.75372314 C145.41721782 105.79396809 145.40860984 102.83475964 145.3984375 99.875 C145.40046099 97.80191953 145.40337472 95.72883976 145.40713501 93.65576172 C145.41154538 89.32187081 145.40516879 84.98816605 145.39111328 80.65429688 C145.37402231 75.11641622 145.38387039 69.57897185 145.40183067 64.04110718 C145.41270329 59.76355743 145.40920622 55.48611006 145.4014473 51.20855713 C145.3994549 49.16733752 145.40187057 47.12610843 145.40888596 45.0848999 C145.41655782 42.22562251 145.40481626 39.36703863 145.38818359 36.5078125 C145.39729263 35.2591037 145.39729263 35.2591037 145.40658569 33.98516846 C145.31533763 25.4606439 143.19995448 18.10546127 137.1574688 11.9311285 C130.56667536 6.03177595 123.44457263 4.25504694 114.81201172 4.36889648 C113.84804474 4.36174118 112.88407776 4.35458588 111.89089966 4.34721375 C108.73666521 4.33044425 105.58387555 4.34965786 102.4296875 4.37109375 C100.22111901 4.37026411 98.01255059 4.36780114 95.8039856 4.36378479 C91.18928303 4.36093499 86.57506802 4.37555082 81.96044922 4.40307617 C76.05804787 4.43719704 70.15651546 4.43111927 64.25407219 4.4124136 C59.6985861 4.401826 55.14330084 4.41079686 50.5878334 4.42579842 C48.41182172 4.43096503 46.23578893 4.43051698 44.05978012 4.42425346 C41.01579688 4.4187785 37.97304229 4.43924876 34.92919922 4.46655273 C34.03859802 4.46002686 33.14799683 4.45350098 32.23040771 4.44677734 C22.63123579 4.59254097 16.0199139 8.65474696 10 16 Z " fill="#FBFBFB" transform="translate(0,0)"/>
<path d="M0 0 C4.17702099 -0.69970402 7.83457404 -0.85029351 12 0 C15.28152461 2.53193777 17.41295189 5.67216088 19.70849609 9.09960938 C21.68891886 12.0137135 23.8030282 14.82588599 25.90258789 17.65478516 C27.72167254 20.10859623 29.52485827 22.57361179 31.328125 25.0390625 C34.78398399 29.73647083 38.3399236 34.34812077 41.9375 38.9375 C47.05305361 45.46654275 52.08747015 52.05066478 57.0625 58.6875 C57.68181396 59.51306396 58.30112793 60.33862793 58.93920898 61.18920898 C69 74.64353717 69 74.64353717 69 76 C64.82297901 76.69970402 61.16542596 76.85029351 57 76 C53.72504562 73.47313165 51.59942246 70.34297662 49.30908203 66.92236328 C47.25868123 63.9113868 45.06519912 61.00884999 42.890625 58.08691406 C41.0689519 55.6336887 39.26580463 53.1676755 37.46484375 50.69921875 C33.65454764 45.49952123 29.69837718 40.42319306 25.6953125 35.37109375 C24 33 24 33 24 31 C23.34 31 22.68 31 22 31 C20.61474609 29.43041992 20.61474609 29.43041992 19.0234375 27.23046875 C18.43836426 26.42851074 17.85329102 25.62655273 17.25048828 24.80029297 C16.32212158 23.50696045 16.32212158 23.50696045 15.375 22.1875 C14.43309814 20.89030029 14.43309814 20.89030029 13.47216797 19.56689453 C12.21909838 17.84024928 10.96856729 16.11175866 9.72070312 14.38134766 C8.25618978 12.35455096 6.78162414 10.33620299 5.296875 8.32421875 C0 1.13151978 0 1.13151978 0 0 Z " fill="#070707" transform="translate(41,36)"/>
</svg>
