<?xml version="1.0" encoding="UTF-8"?>
<svg version="1.1" xmlns="http://www.w3.org/2000/svg" width="492" height="102">
<path d="M0 0 C162.36 0 324.72 0 492 0 C492 33.66 492 67.32 492 102 C329.64 102 167.28 102 0 102 C0 68.34 0 34.68 0 0 Z " fill="#F60303" transform="translate(0,0)"/>
<path d="M0 0 C48.18 0 96.36 0 146 0 C146 28.71 146 57.42 146 87 C97.82 87 49.64 87 0 87 C0 58.29 0 29.58 0 0 Z " fill="#2A2525" transform="translate(340,7)"/>
<path d="M0 0 C162.36 0 324.72 0 492 0 C492 33.66 492 67.32 492 102 C329.64 102 167.28 102 0 102 C0 68.34 0 34.68 0 0 Z M9 7 C5.80060271 33.07650374 5.80060271 33.07650374 15.0625 41.4375 C17.33482413 42.70017793 19.64605623 43.896931 22 45 C23.46204572 46.00692503 24.90637507 47.04135413 26.3125 48.125 C27.199375 48.74375 28.08625 49.3625 29 50 C26.25794332 53.06151959 23.95985541 55.15608428 20.23046875 56.91015625 C15.26712312 59.31473598 15.26712312 59.31473598 9 66 C9 75.24 9 84.48 9 94 C117.24 94 225.48 94 337 94 C337 65.29 337 36.58 337 7 C228.76 7 120.52 7 9 7 Z M340 7 C340 35.71 340 64.42 340 94 C388.18 94 436.36 94 486 94 C486 65.29 486 36.58 486 7 C437.82 7 389.64 7 340 7 Z " fill="#FEFCFC" transform="translate(0,0)"/>
<path d="M0 0 C162.36 0 324.72 0 492 0 C492 33.66 492 67.32 492 102 C329.64 102 167.28 102 0 102 C0 68.34 0 34.68 0 0 Z M2 2 C-1.83949647 33.6310799 -1.83949647 33.6310799 9.3125 43.9375 C11.83172624 45.37056412 14.38911798 46.74164047 17 48 C18.72338867 49.60766602 18.72338867 49.60766602 20 51 C19.18208984 51.36121948 19.18208984 51.36121948 18.34765625 51.72973633 C10.92613728 55.30966775 8.31980696 58.54853039 2 65 C2 76.55 2 88.1 2 100 C163.04 100 324.08 100 490 100 C490 67.66 490 35.32 490 2 C328.96 2 167.92 2 2 2 Z " fill="#E0CFC3" transform="translate(0,0)"/>
<path d="M0 0 C3.58326501 -0.05814085 7.16640838 -0.09364357 10.75 -0.125 C11.76578125 -0.14175781 12.7815625 -0.15851562 13.828125 -0.17578125 C14.8078125 -0.18222656 15.7875 -0.18867188 16.796875 -0.1953125 C17.69760742 -0.20578613 18.59833984 -0.21625977 19.52636719 -0.22705078 C22.19612879 0.01800235 23.75511401 0.55388147 26 2 C28.76583657 6.00569435 29.47192912 9.12219872 28.66015625 13.96484375 C27.4966277 17.55181639 25.36414471 20.09028344 23 23 C23.8353125 23.309375 23.8353125 23.309375 24.6875 23.625 C27.98466393 25.58547585 30.32912354 27.552579 32 31 C32.90796391 36.66507395 32.79326962 41.38512969 30.25 46.5625 C26.22793045 50.91974201 23.92005219 52.42579956 17.79296875 52.94921875 C12.17592247 53.05134686 6.58883273 52.5167484 1 52 C1.99 51.34 2.98 50.68 4 50 C4.43731398 47.86420017 4.43731398 47.86420017 4.34057617 45.36669922 C4.34023628 43.92543167 4.34023628 43.92543167 4.33988953 42.45504761 C4.32440567 41.41542877 4.30892181 40.37580994 4.29296875 39.3046875 C4.28872391 38.24210724 4.28447906 37.17952698 4.28010559 36.08474731 C4.26327389 32.68124354 4.22561303 29.27832567 4.1875 25.875 C4.17245899 23.57162312 4.15876958 21.26823698 4.14648438 18.96484375 C4.11335574 13.30969495 4.06311197 7.65488932 4 2 C2.68 1.34 1.36 0.68 0 0 Z " fill="#FEF0F0" transform="translate(26,24)"/>
<path d="M0 0 C1.76422704 -0.02877991 3.52858954 -0.04933763 5.29296875 -0.06640625 C6.27547607 -0.07873291 7.2579834 -0.09105957 8.27026367 -0.10375977 C12.74363121 0.06627701 15.41597499 1.48849662 18.62109375 4.546875 C24.77437505 11.21661875 25.40530831 17.63707188 25.24609375 26.515625 C24.8083842 32.71303634 23.8009009 37.78428354 19 42 C15.18733555 44.5417763 12.49130353 45.16979815 8 45.25 C7.13375 45.27578125 6.2675 45.3015625 5.375 45.328125 C2.46876766 44.92660606 1.79184185 44.27332553 0 42 C-0.36076355 40.04475403 -0.36076355 40.04475403 -0.34057617 37.80395508 C-0.34034958 36.96331009 -0.34012299 36.1226651 -0.33988953 35.25654602 C-0.32440567 34.35333115 -0.30892181 33.45011627 -0.29296875 32.51953125 C-0.28872391 31.59154221 -0.28447906 30.66355316 -0.28010559 29.70744324 C-0.26330662 26.74216757 -0.22565216 23.7775704 -0.1875 20.8125 C-0.17245474 18.80274419 -0.15876606 16.79297773 -0.14648438 14.78320312 C-0.11339908 9.85520714 -0.06160833 4.92771862 0 0 Z " fill="#272322" transform="translate(361,28)"/>
<path d="M0 0 C3.98347226 -0.07480519 7.96666594 -0.12890718 11.95068359 -0.16479492 C13.96336248 -0.18709408 15.97584584 -0.22523653 17.98828125 -0.26367188 C32.74792803 -0.37492549 32.74792803 -0.37492549 38.98828125 4.578125 C39.42527344 5.12984375 39.86226563 5.6815625 40.3125 6.25 C40.76238281 6.79140625 41.21226562 7.3328125 41.67578125 7.890625 C47.11362114 16.55267084 47.40345819 26.18572501 45.37890625 36.015625 C42.73292017 43.68310468 37.57100687 47.82938798 30.8125 51.9375 C21.27678263 54.59499501 10.73754871 52.89247582 1 52 C1.48666641 51.59813477 1.97333282 51.19626953 2.4747467 50.78222656 C4.39911334 48.53364441 4.38430847 47.41322443 4.40405273 44.484375 C4.41673691 43.57333008 4.42942108 42.66228516 4.44248962 41.72363281 C4.43955399 40.74233398 4.43661835 39.76103516 4.43359375 38.75 C4.44145653 37.2355127 4.44145653 37.2355127 4.44947815 35.69042969 C4.45590278 33.5553479 4.45455567 31.42023074 4.44604492 29.28515625 C4.43753221 26.01238233 4.46629555 22.7413515 4.49804688 19.46875 C4.49965883 17.39583386 4.49908146 15.32291462 4.49609375 13.25 C4.50732773 12.26870117 4.51856171 11.28740234 4.53013611 10.27636719 C4.51606468 8.9097998 4.51606468 8.9097998 4.50170898 7.515625 C4.50154282 6.71415039 4.50137665 5.91267578 4.50120544 5.08691406 C3.819392 2.24798625 2.42061793 1.4973583 0 0 Z M13 4 C12.92590468 9.92648574 12.87142384 15.85270253 12.83520508 21.77954102 C12.82010821 23.79619034 12.79962885 25.81280679 12.77368164 27.8293457 C12.73733789 30.72615671 12.7202828 33.62253406 12.70703125 36.51953125 C12.69154739 37.42274612 12.67606354 38.325961 12.66011047 39.25654602 C12.65988388 40.09719101 12.65965729 40.937836 12.65942383 41.80395508 C12.65276199 42.54341873 12.64610016 43.28288239 12.63923645 44.04475403 C13.10396831 46.56348159 14.00307222 47.44410548 16 49 C21.78581388 50.0157539 27.12373492 49.36694494 32 46 C37.56699715 40.43300285 38.13161197 34.66191588 38.375 27.125 C38.24626232 19.99141811 37.23863851 14.47417586 32.28125 9.15625 C27.73489755 5.07223847 24.48440788 3.86488932 18.3125 3.9375 C17.31863281 3.94652344 16.32476562 3.95554687 15.30078125 3.96484375 C14.54152344 3.97644531 13.78226562 3.98804688 13 4 Z " fill="#F6F6F6" transform="translate(348,24)"/>
<path d="M0 0 C4.08901594 1.84172462 6.22679527 4.47639611 8.875 8 C9.83975573 9.256578 10.80460435 10.51308469 11.76953125 11.76953125 C12.28467285 12.44580566 12.79981445 13.12208008 13.33056641 13.81884766 C15.12660381 16.16541072 16.94180965 18.49612612 18.76171875 20.82421875 C19.39287598 21.63181641 20.0240332 22.43941406 20.67431641 23.27148438 C21.29741699 24.06876953 21.92051758 24.86605469 22.5625 25.6875 C23.75262196 27.21120959 24.94151071 28.73588356 26.12890625 30.26171875 C26.88796265 31.23564575 26.88796265 31.23564575 27.66235352 32.22924805 C28.83218339 33.77784744 29.92344395 35.38516592 31 37 C31 26.11 31 15.22 31 4 C28.525 3.01 28.525 3.01 26 2 C26 1.67 26 1.34 26 1 C30.95 1 35.9 1 41 1 C40.01 1.66 39.02 2.32 38 3 C37.50318436 6.09982319 37.50318436 6.09982319 37.5234375 9.78125 C37.5081752 10.4631691 37.4929129 11.1450882 37.47718811 11.84767151 C37.4300173 14.06507679 37.40264739 16.28227359 37.375 18.5 C37.3308942 20.76189275 37.28161273 23.02363555 37.23210144 25.28541565 C37.19981922 26.77743523 37.16922448 28.26949229 37.14033508 29.76158142 C37.02595061 35.53640004 36.78991774 41.2969946 36.4375 47.0625 C36.39351074 47.79210937 36.34952148 48.52171875 36.30419922 49.2734375 C36.20670061 50.84920456 36.10413655 52.42465769 36 54 C32.12883092 52.46382179 30.17024925 50.13452143 27.5625 46.9375 C27.14145996 46.4223584 26.72041992 45.9072168 26.28662109 45.37646484 C18.85462868 36.20649658 11.42880814 26.90719709 5 17 C4.890453 25.25254036 4.94926308 33.50193386 5.25 41.75 C5.26409912 42.5239209 5.27819824 43.2978418 5.29272461 44.09521484 C5.35877024 46.55931403 5.35877024 46.55931403 6 50 C7.32 50.99 8.64 51.98 10 53 C5.05 53 0.1 53 -5 53 C-3.68 52.01 -2.36 51.02 -1 50 C-0.38521012 47.69336366 -0.38521012 47.69336366 -0.45410156 45.06958008 C-0.43438293 44.06876907 -0.41466431 43.06795807 -0.39434814 42.03681946 C-0.39311951 40.95861435 -0.39189087 39.88040924 -0.390625 38.76953125 C-0.37408875 37.66397385 -0.35755249 36.55841644 -0.34051514 35.4193573 C-0.29187918 31.88368257 -0.27062891 28.34843842 -0.25 24.8125 C-0.22185348 22.41729586 -0.19192793 20.02211192 -0.16015625 17.62695312 C-0.08611612 11.75138066 -0.03456514 5.87593007 0 0 Z " fill="#FEF3F4" transform="translate(175,23)"/>
<path d="M0 0 C3 1 3 1 3.91676331 2.75028992 C4.17054245 3.51162735 4.42432159 4.27296478 4.68579102 5.05737305 C4.97942032 5.91884445 5.27304962 6.78031586 5.57557678 7.66789246 C5.88192551 8.60635513 6.18827423 9.54481781 6.50390625 10.51171875 C6.82785873 11.47269974 7.15181122 12.43368073 7.48558044 13.42378235 C8.52242538 16.50806514 9.54260644 19.59757536 10.5625 22.6875 C11.25346891 24.75231766 11.94551315 26.81677581 12.63867188 28.88085938 C14.18896918 33.50480872 15.72806302 38.13233321 17.259552 42.76254272 C18.16871169 45.50980648 19.08354249 48.25516298 20 51 C21.65 51.33 23.3 51.66 25 52 C25 52.33 25 52.66 25 53 C20.05 53 15.1 53 10 53 C9.67 50.69 9.34 48.38 9 46 C8.6615989 44.18449044 8.30920902 42.37148388 7.9375 40.5625 C7.628125 39.056875 7.31875 37.55125 7 36 C2.05 36 -2.9 36 -8 36 C-9.22995712 41.32981419 -10.30744705 46.57500185 -11 52 C-10.01 52.33 -9.02 52.66 -8 53 C-12.62 53 -17.24 53 -22 53 C-21.24605957 52.36497559 -20.49211914 51.72995117 -19.71533203 51.07568359 C-16.21415011 47.55756171 -15.03744735 43.43437482 -13.5546875 38.7890625 C-13.25813263 37.90270111 -12.96157776 37.01633972 -12.65603638 36.1031189 C-11.71492571 33.28152459 -10.79430095 30.45376665 -9.875 27.625 C-8.94445083 24.80489091 -8.00969954 21.98622339 -7.07254028 19.16830444 C-6.49232198 17.41908221 -5.91660476 15.66835823 -5.34616089 13.91592407 C-3.78419413 9.15659521 -2.04644774 4.57283163 0 0 Z " fill="#F4F4F4" transform="translate(416,23)"/>
<path d="M0 0 C5.94 0 11.88 0 18 0 C17.01 0.66 16.02 1.32 15 2 C14.69557868 4.83896811 14.58005176 7.45581617 14.6015625 10.296875 C14.59869232 11.12326477 14.59582214 11.94965454 14.59286499 12.80108643 C14.59082108 14.55294477 14.59637376 16.30482577 14.60888672 18.05664062 C14.62485515 20.72578776 14.60909205 23.39340186 14.58984375 26.0625 C14.59182772 27.76562832 14.59567457 29.4687557 14.6015625 31.171875 C14.59548981 31.96583679 14.58941711 32.75979858 14.5831604 33.57781982 C14.64405007 38.43200378 15.29201225 41.80878255 18 46 C21.45214853 48.30143236 22.23479324 48.13833854 26.1875 47.625 C27.79166667 47.41666667 29.39583333 47.20833333 31 47 C34.02914198 38.45147284 34.49844571 30.19933987 34.44604492 21.23583984 C34.43740578 18.9753471 34.46660709 16.71728382 34.49804688 14.45703125 C34.49965617 13.01302158 34.49908657 11.56900746 34.49609375 10.125 C34.49794678 8.82820313 34.4997998 7.53140625 34.50170898 6.1953125 C34.302 2.50019884 34.302 2.50019884 30 0 C34.95 0 39.9 0 45 0 C43.68 0.99 42.36 1.98 41 3 C40.60868722 5.60632334 40.46563241 7.80818379 40.49609375 10.4140625 C40.48667252 11.14313812 40.47725128 11.87221375 40.46754456 12.62338257 C40.43887106 14.95753901 40.4358144 17.29068179 40.4375 19.625 C40.40272742 41.79136346 40.40272742 41.79136346 34.625 48.9375 C29.70398411 52.80401248 25.59874544 53.45907121 19.43359375 53.3125 C15.74394862 52.83870929 13.7333171 51.47300119 11 49 C6.59207492 43.16247759 5.83395237 38.75533823 5.68359375 31.61328125 C5.66281265 30.79627243 5.64203156 29.97926361 5.62062073 29.13749695 C5.55526921 26.52924966 5.49630727 23.92090225 5.4375 21.3125 C5.39430108 19.54360946 5.35068635 17.77472903 5.30664062 16.00585938 C5.19960257 11.67067537 5.09829456 7.33539071 5 3 C2.525 2.01 2.525 2.01 0 1 C0 0.67 0 0.34 0 0 Z " fill="#FEF4F4" transform="translate(63,24)"/>
<path d="M0 0 C8.91 0 17.82 0 27 0 C27 3.3 27 6.6 27 10 C26.34 10 25.68 10 25 10 C24.87625 9.360625 24.7525 8.72125 24.625 8.0625 C24.41875 7.381875 24.2125 6.70125 24 6 C21.70370006 4.85185003 19.92301914 4.69230191 17.375 4.4375 C15.93125 4.293125 14.4875 4.14875 13 4 C13 9.94 13 15.88 13 22 C19.435 21.505 19.435 21.505 26 21 C26 24.63 26 28.26 26 32 C25.34 32 24.68 32 24 32 C24 30.35 24 28.7 24 27 C20.37 26.67 16.74 26.34 13 26 C13.14014682 29.3128323 13.28683615 32.62514408 13.4375 35.9375 C13.47681641 36.88302734 13.51613281 37.82855469 13.55664062 38.80273438 C13.61948242 40.15141602 13.61948242 40.15141602 13.68359375 41.52734375 C13.72025146 42.35999756 13.75690918 43.19265137 13.79467773 44.05053711 C13.79367103 46.00338858 13.79367103 46.00338858 15 47 C16.68608966 47.07205511 18.37500659 47.08386068 20.0625 47.0625 C20.98160156 47.05347656 21.90070313 47.04445312 22.84765625 47.03515625 C23.55792969 47.02355469 24.26820313 47.01195312 25 47 C25.66 45.02 26.32 43.04 27 41 C27.66 41 28.32 41 29 41 C29.07622858 44.96388638 28.9681648 48.1273408 28 52 C19.09 52 10.18 52 1 52 C1 51.34 1 50.68 1 50 C2.485 49.505 2.485 49.505 4 49 C4.33 33.49 4.66 17.98 5 2 C3.35 1.67 1.7 1.34 0 1 C0 0.67 0 0.34 0 0 Z " fill="#FEF1F1" transform="translate(223,24)"/>
<path d="M0 0 C1.56814453 0.02320312 1.56814453 0.02320312 3.16796875 0.046875 C5.8125 0.25 5.8125 0.25 7.8125 1.25 C7.8125 4.88 7.8125 8.51 7.8125 12.25 C7.1525 12.25 6.4925 12.25 5.8125 12.25 C5.52375 11.280625 5.235 10.31125 4.9375 9.3125 C4.17035318 6.14335797 4.17035318 6.14335797 1.8125 5.25 C0.27226004 5.18049459 -1.27084988 5.16547643 -2.8125 5.1875 C-3.62976563 5.19652344 -4.44703125 5.20554687 -5.2890625 5.21484375 C-5.91554688 5.22644531 -6.54203125 5.23804688 -7.1875 5.25 C-7.85333879 8.27594062 -8.29254205 11.14600739 -8.1875 14.25 C-6.29611514 17.06145577 -6.29611514 17.06145577 -3.1875 19.25 C2.84625754 24.05554208 7.71507834 28.38565298 9.1875 36.25390625 C9.5219273 41.59429214 7.87339823 45.9129279 4.8125 50.25 C1.10095155 53.87102288 -1.78646973 54.50453589 -6.8125 54.625 C-10.87165131 54.56814914 -12.39613481 54.1456826 -16.1875 52.25 C-16.1875 47.96 -16.1875 43.67 -16.1875 39.25 C-15.5275 39.25 -14.8675 39.25 -14.1875 39.25 C-13.89746094 40.20712891 -13.89746094 40.20712891 -13.6015625 41.18359375 C-13.34117187 42.00988281 -13.08078125 42.83617187 -12.8125 43.6875 C-12.55726563 44.51121094 -12.30203125 45.33492187 -12.0390625 46.18359375 C-11.37867773 48.42798016 -11.37867773 48.42798016 -9.1875 49.25 C-7.64726004 49.31950541 -6.10415012 49.33452357 -4.5625 49.3125 C-3.74523437 49.30347656 -2.92796875 49.29445312 -2.0859375 49.28515625 C-1.45945312 49.27355469 -0.83296875 49.26195312 -0.1875 49.25 C1.07073229 44.61280519 1.59908847 40.34756925 -0.125 35.75 C-2.1522097 33.29277612 -4.06426608 31.8032979 -6.625 29.9375 C-11.66338911 26.1463994 -14.42006165 22.46687176 -15.55859375 16.2109375 C-15.90713499 10.73989627 -14.29264196 7.53006054 -11.1875 3.25 C-7.3845276 0.41421954 -4.70384774 -0.11686578 0 0 Z " fill="#FEEFEF" transform="translate(276.1875,22.75)"/>
<path d="M0 0 C0.96164063 0.00644531 1.92328125 0.01289063 2.9140625 0.01953125 C5.375 0.1875 5.375 0.1875 7.375 1.1875 C7.375 4.8175 7.375 8.4475 7.375 12.1875 C6.715 12.1875 6.055 12.1875 5.375 12.1875 C4.385 9.8775 3.395 7.5675 2.375 5.1875 C-1.6350934 5.00885369 -1.6350934 5.00885369 -5.625 5.1875 C-8.00542708 7.16582464 -8.00542708 7.16582464 -8.14453125 10.9296875 C-8.0545104 14.39744731 -7.37127747 15.97057427 -4.88671875 18.3828125 C-3.71448595 19.38230909 -2.52216674 20.35865014 -1.3125 21.3125 C3.76441233 25.45983684 7.70830594 28.89974213 8.7734375 35.75 C8.70668848 42.69189802 7.51235695 46.66651488 2.9375 52.0625 C-0.90406615 55.0622116 -5.13300904 54.70395792 -9.8203125 54.65625 C-13.01577574 54.12218929 -14.45037244 53.59401913 -16.625 51.1875 C-17.015625 48.48828125 -17.015625 48.48828125 -16.875 45.5 C-16.83890625 44.50613281 -16.8028125 43.51226562 -16.765625 42.48828125 C-16.71921875 41.72902344 -16.6728125 40.96976563 -16.625 40.1875 C-15.635 39.6925 -15.635 39.6925 -14.625 39.1875 C-14.43164062 39.74179687 -14.23828125 40.29609375 -14.0390625 40.8671875 C-13.77867188 41.59164062 -13.51828125 42.31609375 -13.25 43.0625 C-12.99476562 43.78179687 -12.73953125 44.50109375 -12.4765625 45.2421875 C-11.68622217 47.36907994 -11.68622217 47.36907994 -9.625 49.1875 C-5.00706465 49.73874534 -5.00706465 49.73874534 -0.9296875 47.94140625 C1.13939432 45.15991602 0.85043494 42.75328653 0.71484375 39.390625 C-0.16021061 33.71785878 -5.52472229 30.44761084 -9.72265625 27.03125 C-12.7654241 24.0822019 -14.41358004 21.49654193 -15.09375 17.28515625 C-15.1885324 8.0794155 -15.1885324 8.0794155 -12.375 4.5625 C-8.17772902 0.93758416 -5.56286058 -0.08246828 0 0 Z " fill="#FEF1F1" transform="translate(130.625,22.8125)"/>
<path d="M0 0 C4.95 0 9.9 0 15 0 C14.67 1.32 14.34 2.64 14 4 C14.56580291 6.1490476 14.56580291 6.1490476 15.6171875 8.29296875 C16.15666016 9.4850293 16.15666016 9.4850293 16.70703125 10.70117188 C17.09246094 11.52166016 17.47789062 12.34214844 17.875 13.1875 C18.25269531 14.01958984 18.63039063 14.85167969 19.01953125 15.70898438 C20.60133382 19.62073098 20.60133382 19.62073098 23 23 C24.37637745 20.11422066 25.72198249 17.21508967 27.0625 14.3125 C27.64741211 13.08756836 27.64741211 13.08756836 28.24414062 11.83789062 C28.60830078 11.04189453 28.97246094 10.24589844 29.34765625 9.42578125 C29.68804932 8.69786377 30.02844238 7.96994629 30.37915039 7.2199707 C31.30423387 4.55829814 31.30423387 4.55829814 30 0 C34.29 0 38.58 0 43 0 C41.35 1.32 39.7 2.64 38 4 C27.60955908 18.36759228 24.15266317 32.62134986 26 50 C27.65 50 29.3 50 31 50 C31 50.66 31 51.32 31 52 C25.06 52 19.12 52 13 52 C14.32 50.68 15.64 49.36 17 48 C20.17624762 32.58163218 14.06195924 19.87237793 6 7 C4.10331842 4.4467748 2.24204675 2.24204675 0 0 Z " fill="#F8F7F7" transform="translate(433,24)"/>
<path d="M0 0 C1.28583984 0.00966797 1.28583984 0.00966797 2.59765625 0.01953125 C4.9375 0.1875 4.9375 0.1875 7.9375 1.1875 C7.9375 4.8175 7.9375 8.4475 7.9375 12.1875 C7.2775 12.1875 6.6175 12.1875 5.9375 12.1875 C5.628125 11.218125 5.31875 10.24875 5 9.25 C4.24226658 6.34684208 4.24226658 6.34684208 2.9375 5.1875 C-1.07907143 4.95831758 -1.07907143 4.95831758 -5.0625 5.1875 C-7.43395404 7.16258272 -7.43395404 7.16258272 -7.6171875 10.890625 C-7.52352614 14.52862935 -6.64997457 16.13212747 -4.0703125 18.671875 C-2.79545322 19.78308775 -1.50027734 20.8713501 -0.1875 21.9375 C1.10600983 23.03122019 2.39524557 24.13001977 3.6796875 25.234375 C4.54376221 25.94352051 4.54376221 25.94352051 5.42529297 26.66699219 C8.81079864 30.07108152 9.25297579 33.38389693 9.3125 38.0625 C9.21742395 43.27266768 8.57810053 46.25171564 4.9375 50.1875 C4.2775 50.97125 3.6175 51.755 2.9375 52.5625 C-1.78726793 55.12174929 -6.79673139 54.83259416 -12.0625 54.1875 C-13.0525 53.5275 -14.0425 52.8675 -15.0625 52.1875 C-15.35546875 49.1484375 -15.35546875 49.1484375 -15.25 45.5625 C-15.22292969 44.37398437 -15.19585937 43.18546875 -15.16796875 41.9609375 C-15.11576172 40.58808594 -15.11576172 40.58808594 -15.0625 39.1875 C-13.0625 42.1875 -13.0625 42.1875 -12.125 44.75 C-11.19111682 47.49254053 -11.19111682 47.49254053 -8.0625 49.1875 C-4.5625 49.77083333 -4.5625 49.77083333 -1.0625 49.1875 C1.30723841 46.58843207 1.85114883 44.69481311 2.4375 41.25 C1.37848998 34.76356363 -4.34161004 30.93382512 -9.1953125 26.99609375 C-12.22280036 24.06361074 -13.85498317 21.47237504 -14.53125 17.28515625 C-14.6260324 8.0794155 -14.6260324 8.0794155 -11.8125 4.5625 C-7.83404417 1.12656087 -5.27399196 -0.08750213 0 0 Z " fill="#FEF5F5" transform="translate(309.0625,22.8125)"/>
<path d="M0 0 C5.61 0 11.22 0 17 0 C15.68 0.99 14.36 1.98 13 3 C12.42392354 5.14601718 12.42392354 5.14601718 12.54589844 7.56323242 C12.54620056 8.48396042 12.54650269 9.40468842 12.54681396 10.35331726 C12.56745911 11.34402725 12.58810425 12.33473724 12.609375 13.35546875 C12.61503479 14.37224197 12.62069458 15.3890152 12.62652588 16.43659973 C12.64893481 19.68737672 12.69914058 22.93705559 12.75 26.1875 C12.77005911 28.38995805 12.7883109 30.59243336 12.8046875 32.79492188 C12.8488142 38.1969899 12.91577111 43.59841651 13 49 C14.65 49.33 16.3 49.66 18 50 C18 50.66 18 51.32 18 52 C12.06 52 6.12 52 0 52 C1.32 51.01 2.64 50.02 4 49 C4.60224016 46.87774967 4.60224016 46.87774967 4.51757812 44.484375 C4.53018677 43.57333008 4.54279541 42.66228516 4.55578613 41.72363281 C4.54768921 40.74233398 4.53959229 39.76103516 4.53125 38.75 C4.5350769 37.7403418 4.53890381 36.73068359 4.54284668 35.69042969 C4.54556918 33.5553284 4.53818443 31.42019396 4.52148438 29.28515625 C4.50008022 26.01226624 4.52127531 22.74157153 4.546875 19.46875 C4.54423178 17.39582848 4.53910694 15.32290832 4.53125 13.25 C4.53934692 12.26870117 4.54744385 11.28740234 4.55578613 10.27636719 C4.54317749 9.36532227 4.53056885 8.45427734 4.51757812 7.515625 C4.51439575 6.71415039 4.51121338 5.91267578 4.50793457 5.08691406 C4.08930635 2.40508814 4.08930635 2.40508814 0 0 Z " fill="#FEFCFC" transform="translate(146,24)"/>
<path d="M0 0 C5.36697347 3.57798231 10.19369584 6.80739146 15.0625 10.875 C16.00222656 11.65617187 16.94195313 12.43734375 17.91015625 13.2421875 C18.59980469 13.82226562 19.28945313 14.40234375 20 15 C16.17868818 18.98904116 12.1090053 22.42567949 7.75 25.8125 C6.79480469 26.56563477 6.79480469 26.56563477 5.8203125 27.33398438 C1.13180272 31 1.13180272 31 0 31 C0 20.77 0 10.54 0 0 Z " fill="#252121" transform="translate(1,35)"/>
<path d="M0 0 C5.6484375 0.6484375 5.6484375 0.6484375 8.8125 3.8125 C12.14006795 8.66124187 12.41362911 12.10578525 12 18 C10.84360194 20.31279611 9.82590172 22.17409828 8 24 C5.0625 24.1875 5.0625 24.1875 2 24 C0 22 0 22 -0.22705078 19.75341797 C-0.21657715 18.84221191 -0.20610352 17.93100586 -0.1953125 16.9921875 C-0.18886719 16.00605469 -0.18242188 15.01992187 -0.17578125 14.00390625 C-0.15902344 12.97136719 -0.14226563 11.93882813 -0.125 10.875 C-0.11597656 9.83472656 -0.10695312 8.79445313 -0.09765625 7.72265625 C-0.07403747 5.14820908 -0.04110149 2.57421788 0 0 Z " fill="#F80202" transform="translate(39,49)"/>
<path d="M0 0 C5 0 5 0 7.3125 1.9375 C9.90091819 6.63499968 9.77108096 11.08531398 8.4140625 16.21484375 C7 18 7 18 0 19 C0 12.73 0 6.46 0 0 Z " fill="#F80404" transform="translate(39,27)"/>
<path d="M0 0 C2.12600304 3.18900456 3.02136239 5.90414569 4.125 9.5625 C4.47820312 10.71878906 4.83140625 11.87507813 5.1953125 13.06640625 C6 16 6 16 6 18 C2.37 18 -1.26 18 -5 18 C-4.54678672 15.93636888 -4.08720894 13.87413493 -3.625 11.8125 C-3.36976563 10.66394531 -3.11453125 9.51539063 -2.8515625 8.33203125 C-2.10527548 5.41192652 -1.19568212 2.76046611 0 0 Z " fill="#2C2727" transform="translate(415,37)"/>
<path d="M0 0 C0.33 0.99 0.66 1.98 1 3 C3.31 3 5.62 3 8 3 C8.33 2.34 8.66 1.68 9 1 C9.33 2.32 9.66 3.64 10 5 C6.37 5 2.74 5 -1 5 C-0.67 3.35 -0.34 1.7 0 0 Z " fill="#363232" transform="translate(411,50)"/>
</svg>
